<?xml version="1.0" encoding="UTF-8"?>
<svg xmlns="http://www.w3.org/2000/svg"
     width="16" height="16" viewBox="0 0 16 16">
  <g fill="currentColor">
    <rect x="1" y="8" width="2" height="2" rx="0.2"/>
    <rect x="3.5" y="8" width="2" height="2" rx="0.2"/>
    <rect x="6" y="8" width="2" height="2" rx="0.2"/>
    <rect x="8.5" y="8" width="2" height="2" rx="0.2"/>
    <rect x="3.5" y="5.5" width="2" height="2" rx="0.2"/>
    <rect x="6" y="5.5" width="2" height="2" rx="0.2"/>
    <rect x="8.5" y="5.5" width="2" height="2" rx="0.2"/>
    <rect x="6" y="3" width="2" height="2" rx="0.2"/>
    <path d="M1 11.5c0 1.4 1.8 2.5 4.8 2.5 3.5 0 6.2-1.2 7.2-3.5H8.2c-0.6 0-1-0.4-1-1v-1H1v3z"/>
    <path d="M13.2 7.3c0.8-0.2 1.6 0.1 1.8 0.9 0.2 0.8-0.1 1.6-0.9 1.8-0.6 0.2-1.2 0.1-1.6-0.2 0.2-0.8 0.5-1.7 0.7-2.5z"/>
  </g>
</svg>
